<svg width="100" height="89" viewBox="0 0 100 89" fill="none" xmlns="http://www.w3.org/2000/svg">
<path d="M99.9694 44.3595C99.9694 47.4846 97.3651 49.9326 94.4136 49.9326H88.8579L88.9794 77.7289C88.9794 78.2151 88.9447 78.6665 88.8926 79.1352V81.9478C88.8926 85.7848 85.7848 88.8926 81.9478 88.8926H79.17C78.979 88.8926 78.788 88.7363 78.597 88.8752C78.3539 88.7363 78.1109 88.8926 77.8678 88.8926H68.0584C64.2214 88.8926 61.1136 85.7848 61.1136 81.9478V66.6694C61.1136 63.5964 58.6309 61.1136 55.5579 61.1136H44.4463C41.3732 61.1136 38.8905 63.5964 38.8905 66.6694V81.9478C38.8905 85.7848 35.7827 88.8926 31.9458 88.8926H22.2405C21.9801 88.8926 21.7197 88.8752 21.4592 88.8579C21.2509 88.8752 21.0425 88.8926 20.8342 88.8926H18.0563C14.2211 88.8926 11.1116 85.7848 11.1116 81.9478V62.5026C11.1116 62.3463 11.1168 62.1727 11.1272 62.0165V49.9326H5.56447C2.43413 49.9326 0 47.4846 0 44.3595C0 42.7969 0.521549 41.408 1.73792 40.1926L46.2519 1.39172C47.4672 0.173966 48.8562 0 50.0715 0C51.2868 0 52.6758 0.347931 53.7349 1.21776L98.0596 40.1926C99.4486 41.408 100.16 42.7969 99.9694 44.3595Z" fill="white"/>
</svg>
